<svg xmlns="http://www.w3.org/2000/svg" width="1280" height="800" viewBox="0 0 1280 800" font-family="Inter,Segoe UI,system-ui,sans-serif"><rect width="1280" height="800" rx="14" fill="#0b1020"/><rect x="0" y="0" width="1280" height="40" rx="14" fill="#1b2440"/><rect x="0" y="20" width="1280" height="20" fill="#1b2440"/><circle cx="22" cy="20" r="6" fill="#ef4444"/><circle cx="42" cy="20" r="6" fill="#fbbf24"/><circle cx="62" cy="20" r="6" fill="#34d399"/><rect x="92" y="11" width="1150" height="18" rx="9" fill="#0b1020" stroke="#2a355c"/><text x="104" y="24" fill="#94a3b8" font-size="11">nexora.app/workflows</text><rect x="0" y="40" width="210" height="760" fill="#141a2e"/><text x="24" y="74" fill="#8b5cf6" font-size="15" font-weight="700">Nexora</text><circle cx="30" cy="98" r="4" fill="#2a355c"/><text x="46" y="102" fill="#94a3b8" font-size="13">Dashboard</text><circle cx="30" cy="138" r="4" fill="#2a355c"/><text x="46" y="142" fill="#94a3b8" font-size="13">Monitoring</text><circle cx="30" cy="178" r="4" fill="#2a355c"/><text x="46" y="182" fill="#94a3b8" font-size="13">Incidents</text><circle cx="30" cy="218" r="4" fill="#2a355c"/><text x="46" y="222" fill="#94a3b8" font-size="13">Services</text><circle cx="30" cy="258" r="4" fill="#2a355c"/><text x="46" y="262" fill="#94a3b8" font-size="13">Capacity</text><circle cx="30" cy="298" r="4" fill="#2a355c"/><text x="46" y="302" fill="#94a3b8" font-size="13">Cost</text><circle cx="30" cy="338" r="4" fill="#2a355c"/><text x="46" y="342" fill="#94a3b8" font-size="13">Reports</text><text x="230" y="78" fill="#e2e8f0" font-size="22" font-weight="700">Workflows</text><text x="230" y="98" fill="#94a3b8" font-size="12">Automated investigation and remediation workflows.</text><rect x="230" y="116" width="243" height="120" rx="12" fill="#141a2e" stroke="#2a355c"/><circle cx="351" cy="158" r="20" fill="#8b5cf6" opacity="0.22"/><text x="351" y="164" fill="#8b5cf6" font-size="18" font-weight="700" text-anchor="middle">1</text><text x="351" y="202" fill="#e2e8f0" font-size="13" font-weight="600" text-anchor="middle">Detect</text><rect x="321" y="214" width="60" height="14" rx="7" fill="#34d399" opacity="0.18"/><text x="351" y="224" fill="#34d399" font-size="9" font-weight="700" text-anchor="middle">DONE</text><line x1="473" y1="176" x2="491" y2="176" stroke="#8b5cf6" stroke-width="2"/><polygon points="491,176 485,172 485,180" fill="#8b5cf6"/><rect x="491" y="116" width="243" height="120" rx="12" fill="#141a2e" stroke="#2a355c"/><circle cx="612" cy="158" r="20" fill="#8b5cf6" opacity="0.22"/><text x="612" y="164" fill="#8b5cf6" font-size="18" font-weight="700" text-anchor="middle">2</text><text x="612" y="202" fill="#e2e8f0" font-size="13" font-weight="600" text-anchor="middle">Investigate</text><rect x="582" y="214" width="60" height="14" rx="7" fill="#34d399" opacity="0.18"/><text x="612" y="224" fill="#34d399" font-size="9" font-weight="700" text-anchor="middle">DONE</text><line x1="734" y1="176" x2="752" y2="176" stroke="#8b5cf6" stroke-width="2"/><polygon points="752,176 746,172 746,180" fill="#8b5cf6"/><rect x="752" y="116" width="243" height="120" rx="12" fill="#141a2e" stroke="#2a355c"/><circle cx="873" cy="158" r="20" fill="#8b5cf6" opacity="0.22"/><text x="873" y="164" fill="#8b5cf6" font-size="18" font-weight="700" text-anchor="middle">3</text><text x="873" y="202" fill="#e2e8f0" font-size="13" font-weight="600" text-anchor="middle">Recommend</text><rect x="843" y="214" width="60" height="14" rx="7" fill="#34d399" opacity="0.18"/><text x="873" y="224" fill="#34d399" font-size="9" font-weight="700" text-anchor="middle">DONE</text><line x1="995" y1="176" x2="1013" y2="176" stroke="#8b5cf6" stroke-width="2"/><polygon points="1013,176 1007,172 1007,180" fill="#8b5cf6"/><rect x="1013" y="116" width="243" height="120" rx="12" fill="#141a2e" stroke="#2a355c"/><circle cx="1134" cy="158" r="20" fill="#8b5cf6" opacity="0.22"/><text x="1134" y="164" fill="#8b5cf6" font-size="18" font-weight="700" text-anchor="middle">4</text><text x="1134" y="202" fill="#e2e8f0" font-size="13" font-weight="600" text-anchor="middle">Remediate</text><rect x="1104" y="214" width="60" height="14" rx="7" fill="#34d399" opacity="0.18"/><text x="1134" y="224" fill="#34d399" font-size="9" font-weight="700" text-anchor="middle">DONE</text></svg>